<?xml version="1.0" encoding="UTF-8"?>
<svg width="700pt" height="700pt" version="1.1" viewBox="0 0 700 700" xmlns="http://www.w3.org/2000/svg">
 <g>
  <path d="m490 420v31.324c0 8.4727 6.9922 15.344 15.617 15.344h62.102c8.625 0 15.613-6.8711 15.613-15.344v-160.28c0-11.348-2.7344-22.234-7.6953-31.91l-14.137-18.887 35.328-19.039c7.9609-4.293 11.949-18.164 8.7109-30.289l-3.625-13.566c-2.2656-8.4883-7.582-14.02-13.477-14.02h-73.629l-13.793-38.922c-6.6016-18.629-24.223-31.078-43.988-31.078h-48.695c-6.4414 0-11.664 5.2266-11.664 11.668s5.2227 11.668 11.664 11.668h48.695c9.8828 0 18.691 6.2227 21.996 15.539l13.793 38.922c3.3008 9.3125 12.113 15.539 21.992 15.539h65.445l2.7422 10.27c0.42969 1.6133 0.44141 3.582 0.074218 5.1758l-32.641 17.59c-13.98 7.5391-16.512 26.539-4.9883 37.469 9.2539 8.7773 14.559 20.988 14.559 33.871v152.29h-46.668v-23.332c0-12.887-10.445-23.332-23.332-23.332h-81.668c-6.4414 0-11.664 5.2227-11.664 11.664 0 6.4453 5.2227 11.668 11.664 11.668zm-280 0v31.324c0 8.4727-6.9922 15.344-15.617 15.344h-62.102c-8.625 0-15.613-6.8711-15.613-15.344v-160.28c0-11.348 2.7344-22.234 7.6914-31.91l14.141-18.887-35.328-19.039c-7.9609-4.293-11.949-18.164-8.7109-30.289l3.625-13.566c2.2656-8.4883 7.582-14.02 13.477-14.02h73.629l13.793-38.922c6.6016-18.629 24.223-31.078 43.988-31.078h48.695c6.4414 0 11.664 5.2266 11.664 11.668s-5.2227 11.668-11.664 11.668h-48.695c-9.8828 0-18.691 6.2227-21.996 15.539l-13.793 38.922c-3.3008 9.3125-12.113 15.539-21.992 15.539h-65.445l-2.7422 10.27c-0.42969 1.6133-0.44141 3.582-0.074218 5.1758l32.641 17.594c13.98 7.5352 16.512 26.535 4.9883 37.465-9.2539 8.7773-14.559 20.988-14.559 33.871v152.29h46.668v-23.332c0-12.887 10.445-23.332 23.332-23.332h81.668c6.4414 0 11.664 5.2227 11.664 11.664 0 6.4453-5.2227 11.668-11.664 11.668z"/>
  <path d="m242.3 309.62c6.4297 0.79297 11.773 5.7422 11.773 12.195v9.4023c0 1.832-1.5273 3.2969-3.3633 3.2266l-50.59-1.8828c-7.3945-0.27734-13.453-6.5469-13.453-13.938v-10.406c0-2.7734 2.2891-5.1875 5.043-4.8516zm215.4 0 50.59-6.2539c2.7539-0.33594 5.043 2.0781 5.043 4.8516v10.406c0 7.3906-6.0586 13.66-13.453 13.938l-50.59 1.8828c-1.8359 0.070313-3.3633-1.3945-3.3633-3.2266v-9.4023c0-6.4531 5.3438-11.402 11.773-12.195z" fill-rule="evenodd"/>
  <path d="m350 46.668c6.4414 0 11.668 6.4414 11.668 11.668v420c0 6.4414-5.2227 11.668-11.668 11.668-6.4414 0-11.668-6.4414-11.668-11.668v-420c0-6.4414 5.2227-11.668 11.668-11.668z" fill-rule="evenodd"/>
 </g>
</svg>
