<?xml version="1.0" encoding="utf-8"?>
<!-- Svg Vector Icons : http://www.onlinewebfonts.com/icon -->
<!DOCTYPE svg PUBLIC "-//W3C//DTD SVG 1.1//EN" "http://www.w3.org/Graphics/SVG/1.1/DTD/svg11.dtd">
<svg version="1.1" xmlns="http://www.w3.org/2000/svg" xmlns:xlink="http://www.w3.org/1999/xlink" x="0px" y="0px" viewBox="0 0 1000 1000" enable-background="new 0 0 1000 1000" xml:space="preserve">
<metadata> Svg Vector Icons : http://www.onlinewebfonts.com/icon </metadata>
<g><g transform="translate(0.000000,511.000000) scale(0.100000,-0.100000)"><path d="M4638.7,3117.5c-1175.8-97.5-2213.9-564-3039.8-1367c-420.6-407.2-726.5-825.9-976.9-1338.3c-185.4-378.5-271.5-606.1-363.2-975c-99.4-395.8-135.7-663.4-147.2-1103.1L100-2044.5h1791.4h1789.5v286.8v286.8H2180.1H677.4l13.4,120.4C730.9-968.1,830.3-551.3,958.4-234c156.8,386.2,428.2,837.4,686.3,1141.4l128.1,149.1l233.2-231.3l231.3-231.3l200.7,200.7l200.7,200.7l-227.5,227.5c-261.9,261.9-258.1,225.6-40.2,401.5c453.1,369,1005.6,657.7,1521.8,795.3c225.6,59.3,604.1,124.3,726.5,124.3h93.7v-860.3V823.3H5000h286.8v860.3v860.3h91.8c124.3,0,512.4-66.9,724.6-124.3c361.3-97.5,768.6-273.4,1133.7-493.2c162.5-99.4,598.4-416.8,623.2-455c7.7-11.5-87.9-122.4-214.1-248.5l-227.5-227.5l200.7-200.7l200.7-200.7l231.3,231.3l231.3,231.3l97.5-122.4c258.1-325,537.2-818.3,682.5-1208.3c120.4-325,202.6-684.5,248.5-1085.9l11.5-110.9H7821.8H6319.2v-286.8v-286.8h1791.4H9900l-11.5,378.5c-13.4,439.7-59.3,776.2-156.8,1145.2C9257.6,1282.1,7789.4,2668.2,5975,3029.5C5546.8,3115.6,5026.8,3150,4638.7,3117.5z"/><path d="M3355.8,1373.9c-131.9-74.6-242.8-137.6-246.6-141.5c-3.8-3.8,260-466.5,588.8-1026.6c326.9-562.1,594.6-1028.6,594.6-1040c0-9.6-38.2-55.4-86-101.3c-114.7-112.8-225.6-284.9-288.7-449.3c-66.9-175.9-84.1-456.9-38.2-640.5c105.2-416.8,428.2-747.5,835.5-852.7c156.8-42.1,413-42.1,569.7,0c499,130,862.2,594.6,862.2,1105c0,200.7-28.7,321.2-118.5,512.4c-137.6,288.7-428.3,529.6-741.8,611.8c-47.8,13.4-172.1,28.7-275.3,36.3L4820.3-601L4223.8,450.5C3896.9,1027.9,3619.7,1502,3612,1505.8C3602.5,1507.7,3487.7,1448.5,3355.8,1373.9z M5286.8-1256.8c307.8-154.9,388.1-634.7,147.2-896.7c-130-141.5-198.8-168.2-434-168.2c-223.7,0-298.2,26.8-418.7,147.2c-233.2,231.3-193.1,711.2,74.6,887.1C4831.8-1170.8,5091.8-1157.4,5286.8-1256.8z"/></g></g>
</svg>