<?xml version="1.0" encoding="utf-8"?>
<!-- Svg Vector Icons : http://www.onlinewebfonts.com/icon -->
<!DOCTYPE svg PUBLIC "-//W3C//DTD SVG 1.1//EN" "http://www.w3.org/Graphics/SVG/1.1/DTD/svg11.dtd">
<svg version="1.1" xmlns="http://www.w3.org/2000/svg" xmlns:xlink="http://www.w3.org/1999/xlink" x="0px" y="0px" viewBox="0 0 1000 1000" enable-background="new 0 0 1000 1000" xml:space="preserve">
<metadata> Svg Vector Icons : http://www.onlinewebfonts.com/icon </metadata>
<g><g transform="translate(0.000000,511.000000) scale(0.100000,-0.100000)"><path d="M2171.2,4966c-149.7-90.3-138.7,284.1-138.7-4547.6v-4371.4h-165.2c-200.4,0-303.9-37.4-363.4-136.5c-35.2-59.5-44-110.1-44-295.1c0-193.8,6.6-231.3,46.2-281.9c103.5-129.9-68.3-123.3,2827.7-123.3c2933.4,0,2739.6-8.8,2829.8,138.7c35.2,55.1,44,110.1,44,268.7c0,332.5-90.3,429.4-400.8,429.4h-171.8v427.2v425l259.8,13.2c141,6.6,312.7,28.6,378.8,48.5c442.6,136.5,764.2,455.8,916.1,913.9c37.4,110.1,41.9,237.8,48.5,1541.6l6.6,1420.4l79.3,44.1c44,24.2,110.1,81.5,147.6,127.7l68.3,85.9v667.3V2429l-66.1,85.9c-37.4,46.2-110.1,103.5-160.8,127.7c-74.9,35.2-92.5,55.1-92.5,103.5c0,105.7-107.9,403-193.8,537.3c-147.6,224.6-403,444.8-559.4,482.3c-143.1,35.2-321.5-94.7-341.3-246.7c-17.6-127.7,37.4-224.6,187.2-330.3c145.4-103.5,237.9-224.6,292.9-387.6l39.6-114.5l-59.5-30.8c-81.5-41.8-178.4-132.1-220.2-211.4c-33-57.3-37.4-147.6-37.4-660.7c0-325.9,6.6-621,17.6-656.3c22-81.5,154.2-224.6,235.6-257.7l68.3-28.6l-6.6-1389.6l-6.6-1389.6l-57.3-121.1c-79.3-169.6-171.8-266.5-332.5-352.4c-125.5-68.3-158.6-74.9-374.4-83.7l-237.8-11v3638.1c0,4003.7,8.8,3743.8-136.6,3834.1c-70.5,44-105.7,44-2164.8,44C2296.8,5010,2239.5,5007.8,2171.2,4966z M6040.5,3162.3V1887.3H4336H2631.5l-13.2,101.3c-13.2,121.1-13.2,2407,2.2,2433.5c4.4,8.8,777.4,15.4,1715.5,15.4h1704.5V3162.3z M5247.8,576.9c28.6-15.4,77.1-61.7,103.5-101.3c46.3-70.5,50.6-96.9,50.6-416.2c0-303.9-4.4-347.9-44-411.8c-88.1-140.9-103.5-143.1-1028.4-143.1c-953.6,0-947,0-1035,176.2c-44,85.9-50.6,132.1-50.6,363.4c0,319.3,22,405.2,123.3,493.3l77.1,68.3h874.3C4972.5,605.5,5205.9,598.9,5247.8,576.9z"/></g></g>
</svg>