<svg width="32" height="26" viewBox="0 0 32 26" fill="none" xmlns="http://www.w3.org/2000/svg">
<path d="M4 26C6.2 26 8 24.2 8 22C8 21 7.6 20 7 19.4L9.6 14H10C11 14 12 13.6 12.6 13L18 15.8V16C18 18.2 19.8 20 22 20C24.2 20 26 18.2 26 16C26 15 25.6 14.2 25 13.4L27.6 8H28C30.2 8 32 6.2 32 4C32 1.8 30.2 0 28 0C25.8 0 24 1.8 24 4C24 5 24.4 6 25 6.6L22.4 12H22C21 12 20 12.4 19.4 13L14 10.4V10C14 7.8 12.2 6 10 6C7.8 6 6 7.8 6 10C6 11 6.4 12 7 12.6L4.4 18H4C1.8 18 0 19.8 0 22C0 24.2 1.8 26 4 26Z" fill="#1F104A"/>
</svg>
