<?xml version="1.0" encoding="utf-8"?>
<!-- Svg Vector Icons : http://www.onlinewebfonts.com/icon -->
<!DOCTYPE svg PUBLIC "-//W3C//DTD SVG 1.1//EN" "http://www.w3.org/Graphics/SVG/1.1/DTD/svg11.dtd">
<svg version="1.1" xmlns="http://www.w3.org/2000/svg" xmlns:xlink="http://www.w3.org/1999/xlink" x="0px" y="0px" viewBox="0 0 1000 1000" enable-background="new 0 0 1000 1000" xml:space="preserve">
<metadata> Svg Vector Icons : http://www.onlinewebfonts.com/icon </metadata>
<g><path d="M816.5,132.5H650.1C636,62.7,574.1,10,500,10c-74.1,0-136,52.7-150.1,122.5H183.5c-45.1,0-81.7,36.5-81.7,81.7v694.2c0,45.1,36.5,81.7,81.7,81.7h632.9c45.1,0,81.7-36.5,81.7-81.7V214.2C898.1,169,861.6,132.5,816.5,132.5z M500,112.1c28.2,0,51,22.9,51,51c0,28.2-22.9,51-51,51c-28.2,0-51-22.9-51-51C449,134.9,471.8,112.1,500,112.1z M796,843c0,24.9-20,44.9-44.9,44.9H248.9c-24.9,0-44.9-20-44.9-44.9V279.5c0-24.9,20-44.9,44.9-44.9h98v36.8c0,24.9,20,44.9,44.9,44.9h216.4c24.9,0,44.9-20,44.9-44.9v-36.8h98c24.9,0,44.9,20,44.9,44.9V843z"/><path d="M445.2,783.3h-49.2L291.6,656.9c-3.6-4.4-6-7.9-7.3-10.4h-0.9v136.7h-35.9V505.3h35.9v130.8h0.9c2-3.2,4.5-6.6,7.3-10.2l100.8-120.6h44.3L320.2,638.6L445.2,783.3z"/><path d="M762,783.3h-35.2V669.3c0-21.5-3.3-36.9-10-46.2c-6.7-9.3-17.7-13.9-33-13.9c-12.9,0-24,6-33.2,18.1c-9.2,12.1-13.8,26.4-13.8,42.9v113h-35.2V665.7c0-37.7-14.5-56.5-43.6-56.5c-13.4,0-24.5,5.7-33.3,17.2c-8.8,11.5-13.2,26.1-13.2,44v112.9h-35.2V584.8h35.2v31.4h0.7c14.1-24.1,34.7-36.1,61.9-36.1c13.3,0,25,3.7,35.2,10.9c10.2,7.3,17.2,17.2,21.2,29.6c14.7-27,36.7-40.5,66-40.5c43.7,0,65.5,26.9,65.5,80.8L762,783.3L762,783.3z"/></g>
</svg>