<?xml version="1.0" encoding="UTF-8"?>
<svg width="700pt" height="700pt" version="1.1" viewBox="0 0 700 700" xmlns="http://www.w3.org/2000/svg">
 <g fill-rule="evenodd">
  <path d="m525.26 317-37-37 37-37 37.004 37zm86.5-20.5c9.1133-9.1133 9.1133-23.887 0-33l-70-70c-9.1133-9.1133-23.887-9.1133-32.996 0l-70 70c-9.1133 9.1133-9.1133 23.887 0 33l70 70c9.1094 9.1133 23.883 9.1133 32.996 0z"/>
  <path d="m151.93 317-37-37 37-37 37 37zm86.5-20.5c9.1094-9.1133 9.1094-23.887 0-33l-70-70c-9.1133-9.1133-23.887-9.1133-33 0l-70 70c-9.1133 9.1133-9.1133 23.887 0 33l70 70c9.1133 9.1133 23.887 9.1133 33 0z"/>
  <path d="m221.93 303.33h233.33c12.887 0 23.336-10.445 23.336-23.332s-10.449-23.332-23.336-23.332h-233.33c-12.887 0-23.332 10.445-23.332 23.332s10.445 23.332 23.332 23.332z"/>
  <path d="m128.59 116.67v93.332c0 12.887 10.445 23.332 23.332 23.332s23.332-10.445 23.332-23.332v-93.332c0-12.887-10.445-23.336-23.332-23.336s-23.332 10.449-23.332 23.336z"/>
  <path d="m501.93 116.67v93.332c0 12.887 10.445 23.332 23.332 23.332 12.887 0 23.336-10.445 23.336-23.332v-93.332c0-12.887-10.449-23.336-23.336-23.336-12.887 0-23.332 10.449-23.332 23.336z"/>
  <path d="m501.93 350v93.332c0 12.887 10.445 23.336 23.332 23.336 12.887 0 23.336-10.449 23.336-23.336v-93.332c0-12.887-10.449-23.332-23.336-23.332-12.887 0-23.332 10.445-23.332 23.332z"/>
  <path d="m128.59 350v87.453c0 12.887 10.445 23.332 23.332 23.332s23.332-10.445 23.332-23.332v-87.453c0-12.887-10.445-23.332-23.332-23.332s-23.332 10.445-23.332 23.332z"/>
  <path d="m455.26 140h140c12.887 0 23.332-10.445 23.332-23.332v-70c0-12.887-10.445-23.336-23.332-23.336h-140c-12.887 0-23.336 10.449-23.336 23.336v70c0 12.887 10.449 23.332 23.336 23.332zm23.332-70h93.332v23.332h-93.332z"/>
  <path d="m455.26 536.67h140c12.887 0 23.332-10.449 23.332-23.336v-70c0-12.887-10.445-23.332-23.332-23.332h-140c-12.887 0-23.336 10.445-23.336 23.332v70c0 12.887 10.449 23.336 23.336 23.336zm23.332-70h93.332v23.332h-93.332z"/>
  <path d="m246.37 53.145-130.29-51.242c-11.992-4.7148-25.539 1.1836-30.254 13.176l-25.621 65.148c-4.7148 11.992 1.1836 25.535 13.176 30.254l130.29 51.238c11.992 4.7148 25.539-1.1836 30.254-13.176l25.621-65.145c4.7148-11.992-1.1836-25.539-13.176-30.254zm-47.336 56.605-86.863-34.16 8.543-21.719 86.863 34.16z"/>
  <path d="m246.37 449.53-130.29-51.238c-11.992-4.7188-25.539 1.1797-30.254 13.172l-25.621 65.148c-4.7148 11.992 1.1836 25.539 13.176 30.254l130.29 51.238c11.992 4.7188 25.539-1.1797 30.254-13.172l25.621-65.148c4.7148-11.992-1.1836-25.539-13.176-30.254zm-38.793 34.891-8.543 21.719-86.863-34.164 8.543-21.715z"/>
 </g>
</svg>
